# xmcd CD database file
#
# Track frame offsets:
#	150
#	23765
#	43315
#	58130
#	71302
#	86472
#	98867
#	119342
#	137540
#	155162
#	172117
#
# Disc length: 2448 seconds
#
# Revision: 0
# Processed by: cddbd v1.5.1PL0 Copyright (c) Steve Scherf et al.
# Submitted via: CDex 1.51
#
DISCID=96098e0b
DTITLE=ちわきまゆみ - アタック・トリートメント
DYEAR=1987
DGENRE=J-Pop
TTITLE0=オーロラ・ガール
TTITLE1=プリーズ・プリーズ
TTITLE2=妖精の海
TTITLE3=あなたなくなる
TTITLE4=エンジェル・ダスト
TTITLE5=ピストル・ソング
TTITLE6=シネマキネビュラ
TTITLE7=スキャンドール
TTITLE8=ムーンライト・マッドネス
TTITLE9=遊星少女フィオラ
TTITLE10=Revenge of Publison
EXTD=YEAR: 1987
EXTT0=
EXTT1=
EXTT2=
EXTT3=
EXTT4=
EXTT5=
EXTT6=
EXTT7=
EXTT8=
EXTT9=
EXTT10=
PLAYORDER=
